<svg xmlns="http://www.w3.org/2000/svg" width="150" height="156" xmlns:v="https://vecta.io/nano"><path d="M42.148 137.67c-5.465-3.141-10.452-7.049-14.809-11.604a16.51 16.51 0 0 1-4.557 3.949c-.966.545-1.983.993-3.038 1.337 23.572 25.741 61.77 31.851 92.195 14.748a4.63 4.63 0 0 0 0-8.034h0c-1.396-.838-3.133-.867-4.557-.076a65.77 65.77 0 0 1-65.235-.319zm-.015-113.854a65.63 65.63 0 0 1 17.497-6.972 16.57 16.57 0 0 1-1.154-6.075c.003-1.122.115-2.241.334-3.342C24.743 14.992.377 45.028 0 79.923a4.65 4.65 0 0 0 6.972 4.01h0c1.41-.792 2.294-2.272 2.324-3.888a65.77 65.77 0 0 1 32.838-56.228zm98.59 56.927c-.002 6.31-.913 12.586-2.704 18.636 2.042.299 4.011.979 5.802 2.005a18.47 18.47 0 0 1 2.719 1.899c10.456-33.286-3.386-69.389-33.415-87.152a4.65 4.65 0 0 0-6.805 4.101h0c-.017 1.613.821 3.115 2.203 3.949 19.967 11.847 32.205 33.346 32.2 56.563zM75.017 49.485a31.26 31.26 0 1 1-31.244 31.257c.017-17.251 13.992-31.233 31.243-31.258m0-9.28c-22.389 0-40.539 18.15-40.539 40.539s18.15 40.539 40.539 40.539 40.539-18.15 40.539-40.539c.004-10.753-4.266-21.066-11.869-28.67a40.52 40.52 0 0 0-28.669-11.869z" fill="#334155"/><g fill="#f58320"><circle cx="75.002" cy="10.814" r="10.814"/><circle cx="14.444" cy="115.692" r="10.814"/><circle cx="135.559" cy="115.692" r="10.814"/><path d="M83.978 73.346c.006-4.361-3.129-8.094-7.426-8.841a8.96 8.96 0 0 0-5.94 16.633l-2.825 14.323a1.52 1.52 0 0 0 1.519 1.823h11.498a1.52 1.52 0 0 0 1.519-1.823l-2.84-14.323c2.79-1.6 4.507-4.575 4.496-7.792h0z"/></g></svg>